<?xml version="1.0" ?>
<svg xmlns="http://www.w3.org/2000/svg" width="96" height="96" viewBox="0 0 96 96">
 <path d="M 40 94 L 39 95 L 40 95 L 41 95 Z M 0 66 L 0 67 L 0 68 L 0 67 Z M 35 46 L 35 47 L 35 48 L 36 48 L 37 48 L 37 47 L 37 46 L 36 46 Z M 32 42 L 31 43 L 31 44 L 32 44 L 33 44 L 33 43 Z M 30 23 Z M 33 20 L 33 21 Z M 62 19 L 62 20 L 62 21 L 63 21 L 64 21 L 64 20 L 64 19 L 63 19 Z M 2 0 L 2 1 L 1 2 L 0 2 L 0 3 L 0 4 L 0 5 L 0 6 L 0 7 L 0 8 L 0 9 L 0 10 L 0 11 L 0 12 L 0 13 L 0 14 L 0 15 L 0 16 L 0 17 L 0 18 L 0 19 L 0 20 L 0 21 L 0 22 L 0 23 L 0 24 L 0 25 L 0 26 L 0 27 L 0 28 L 0 29 L 0 30 L 0 31 L 0 32 L 0 33 L 0 34 L 0 35 L 0 36 L 0 37 L 0 38 L 0 39 L 0 40 L 0 41 L 0 42 L 0 43 L 0 44 L 0 45 L 0 46 L 0 47 L 0 48 L 0 49 L 0 50 L 0 51 L 0 52 L 0 53 L 0 54 L 0 55 L 0 56 L 0 57 L 0 58 L 0 59 L 0 60 L 0 61 L 1 61 L 2 62 L 2 63 L 3 64 L 2 65 L 3 65 L 4 65 L 5 65 L 6 65 L 7 65 L 8 65 L 9 65 L 10 65 L 11 65 L 12 65 L 13 65 L 14 65 L 15 65 L 16 65 L 17 65 L 18 65 L 19 65 L 20 65 L 21 65 L 22 65 L 23 65 L 24 65 L 25 65 L 26 65 L 27 65 L 28 65 L 29 65 L 30 65 L 31 65 L 32 65 L 33 65 L 34 65 L 35 65 L 36 65 L 37 65 L 38 65 L 39 65 L 40 64 L 40 63 L 41 62 L 42 63 L 42 64 L 42 65 L 42 66 L 42 67 L 42 68 L 42 69 L 42 70 L 42 71 L 42 72 L 42 73 L 42 74 L 42 75 L 42 76 L 42 77 L 42 78 L 42 79 L 42 80 L 42 81 L 42 82 L 42 83 L 42 84 L 42 85 L 42 86 L 42 87 L 42 88 L 42 89 L 42 90 L 43 90 L 44 90 L 45 91 L 45 92 L 45 93 L 46 93 L 47 93 L 48 93 L 49 93 L 50 94 L 51 94 L 52 95 L 53 95 L 54 95 L 55 95 L 56 95 L 57 95 L 58 95 L 59 95 L 60 95 L 61 95 L 62 95 L 63 95 L 64 95 L 65 95 L 66 95 L 67 95 L 68 95 L 69 95 L 70 95 L 71 95 L 72 95 L 73 95 L 74 95 L 75 95 L 76 95 L 77 95 L 78 95 L 79 95 L 80 95 L 81 95 L 82 95 L 83 95 L 84 95 L 85 95 L 86 95 L 87 95 L 88 94 L 89 94 L 90 93 L 91 93 L 92 93 L 93 93 L 94 93 L 94 92 L 94 91 L 95 90 L 95 89 L 95 88 L 95 87 L 95 86 L 95 85 L 95 84 L 95 83 L 95 82 L 95 81 L 95 80 L 95 79 L 95 78 L 95 77 L 95 76 L 95 75 L 95 74 L 95 73 L 95 72 L 95 71 L 95 70 L 95 69 L 95 68 L 95 67 L 95 66 L 95 65 L 95 64 L 95 63 L 95 62 L 95 61 L 95 60 L 95 59 L 95 58 L 95 57 L 95 56 L 95 55 L 95 54 L 95 53 L 94 53 L 93 52 L 92 51 L 91 50 L 92 49 L 93 49 L 94 49 L 95 49 L 95 48 L 95 47 L 95 46 L 95 45 L 95 44 L 95 43 L 95 42 L 95 41 L 95 40 L 95 39 L 95 38 L 95 37 L 95 36 L 95 35 L 95 34 L 95 33 L 95 32 L 95 31 L 95 30 L 95 29 L 95 28 L 95 27 L 95 26 L 95 25 L 95 24 L 95 23 L 95 22 L 95 21 L 95 20 L 95 19 L 95 18 L 95 17 L 95 16 L 95 15 L 95 14 L 95 13 L 95 12 L 95 11 L 95 10 L 95 9 L 95 8 L 95 7 L 95 6 L 95 5 L 95 4 L 95 3 L 95 2 L 94 2 L 93 1 L 93 0 L 92 0 L 91 0 L 90 0 L 89 0 L 88 0 L 87 0 L 86 0 L 85 0 L 84 0 L 83 0 L 82 0 L 81 0 L 80 0 L 79 0 L 78 0 L 77 0 L 76 0 L 75 0 L 74 0 L 73 0 L 72 0 L 71 0 L 70 0 L 69 0 L 68 0 L 67 0 L 66 0 L 65 0 L 64 0 L 63 0 L 62 0 L 61 0 L 60 0 L 59 0 L 58 0 L 57 0 L 56 0 L 55 0 L 54 0 L 53 0 L 52 0 L 51 0 L 50 0 L 49 0 L 48 0 L 47 0 L 46 0 L 45 0 L 44 0 L 43 0 L 42 0 L 41 0 L 40 0 L 39 0 L 38 0 L 37 0 L 36 0 L 35 0 L 34 0 L 33 0 L 32 0 L 31 0 L 30 0 L 29 0 L 28 0 L 27 0 L 26 0 L 25 0 L 24 0 L 23 0 L 22 0 L 21 0 L 20 0 L 19 0 L 18 0 L 17 0 L 16 0 L 15 0 L 14 0 L 13 0 L 12 0 L 11 0 L 10 0 L 9 0 L 8 0 L 7 0 L 6 0 L 5 0 L 4 0 L 3 0 Z M 61 86 L 62 85 L 63 85 L 64 85 L 65 85 L 66 85 L 67 85 L 68 85 L 69 85 L 70 85 L 71 85 L 72 85 L 73 85 L 74 85 L 75 85 L 76 85 L 77 86 L 76 87 L 75 87 L 74 87 L 73 87 L 72 87 L 71 87 L 70 87 L 69 87 L 68 87 L 67 87 L 66 87 L 65 87 L 64 87 L 63 87 L 62 87 Z M 82 85 L 83 84 L 84 85 L 83 86 Z M 79 85 L 80 84 L 81 84 L 82 85 L 81 86 L 80 86 Z M 57 85 L 58 84 L 59 84 L 60 85 L 59 86 L 58 86 Z M 55 85 L 56 84 L 57 85 L 56 86 Z M 61 74 L 62 73 L 63 73 L 64 73 L 65 73 L 66 73 L 67 73 L 68 73 L 69 73 L 70 73 L 71 73 L 72 73 L 73 73 L 74 73 L 75 73 L 76 73 L 77 74 L 76 75 L 75 75 L 74 75 L 73 75 L 72 75 L 71 75 L 70 75 L 69 75 L 68 75 L 67 75 L 66 75 L 65 75 L 64 75 L 63 75 L 62 75 Z M 82 73 L 83 72 L 84 73 L 83 74 Z M 79 73 L 80 72 L 81 72 L 82 73 L 81 74 L 80 74 Z M 57 73 L 58 72 L 59 72 L 60 73 L 59 74 L 58 74 Z M 55 73 L 56 72 L 57 73 L 56 74 Z M 54 58 L 55 57 L 56 57 L 57 57 L 58 57 L 59 57 L 60 57 L 61 57 L 62 57 L 63 57 L 64 57 L 65 57 L 66 57 L 67 57 L 68 57 L 69 57 L 70 57 L 71 57 L 72 57 L 73 57 L 74 57 L 75 57 L 76 57 L 77 57 L 78 57 L 79 57 L 80 57 L 81 57 L 82 57 L 83 57 L 84 57 L 85 58 L 86 59 L 86 60 L 85 61 L 84 62 L 83 62 L 82 62 L 81 62 L 80 62 L 79 62 L 78 62 L 77 62 L 76 62 L 75 62 L 74 62 L 73 62 L 72 62 L 71 62 L 70 62 L 69 62 L 68 62 L 67 62 L 66 62 L 65 62 L 64 62 L 63 62 L 62 62 L 61 62 L 60 62 L 59 62 L 58 62 L 57 62 L 56 62 L 55 62 L 54 61 L 53 60 L 53 59 Z M 89 49 L 90 48 L 91 49 L 90 50 Z M 46 29 L 47 28 L 48 28 L 49 29 L 50 30 L 51 31 L 51 32 L 50 33 L 49 34 L 48 35 L 47 35 L 46 34 L 45 33 L 44 32 L 44 31 L 45 30 Z M 27 10 L 28 9 L 29 9 L 30 9 L 31 9 L 32 9 L 33 9 L 34 9 L 35 9 L 36 9 L 37 9 L 38 9 L 39 9 L 40 9 L 41 9 L 42 9 L 43 9 L 44 9 L 45 9 L 46 9 L 47 9 L 48 9 L 49 9 L 50 9 L 51 9 L 52 9 L 53 9 L 54 9 L 55 9 L 56 9 L 57 9 L 58 9 L 59 9 L 60 9 L 61 9 L 62 9 L 63 9 L 64 9 L 65 9 L 66 9 L 67 9 L 68 9 L 69 9 L 70 9 L 71 9 L 72 9 L 73 9 L 74 9 L 75 9 L 76 9 L 77 9 L 78 9 L 79 9 L 80 9 L 81 9 L 82 9 L 83 9 L 84 9 L 85 9 L 86 10 L 87 11 L 86 12 L 86 13 L 86 14 L 86 15 L 86 16 L 86 17 L 86 18 L 86 19 L 86 20 L 86 21 L 86 22 L 86 23 L 86 24 L 86 25 L 86 26 L 86 27 L 86 28 L 86 29 L 86 30 L 86 31 L 86 32 L 86 33 L 86 34 L 86 35 L 86 36 L 86 37 L 86 38 L 86 39 L 86 40 L 86 41 L 86 42 L 86 43 L 86 44 L 86 45 L 85 46 L 84 46 L 83 46 L 82 46 L 81 46 L 80 46 L 79 46 L 78 46 L 77 46 L 76 46 L 75 46 L 74 46 L 73 46 L 72 46 L 71 46 L 70 46 L 69 46 L 68 46 L 67 46 L 66 46 L 65 46 L 64 46 L 63 46 L 62 46 L 61 46 L 60 46 L 59 46 L 58 46 L 57 46 L 56 46 L 55 46 L 54 45 L 54 44 L 55 43 L 56 42 L 57 42 L 58 41 L 59 40 L 60 40 L 61 41 L 61 40 L 61 39 L 61 38 L 61 37 L 61 36 L 61 35 L 61 34 L 61 33 L 61 32 L 61 31 L 61 30 L 61 29 L 61 28 L 61 27 L 61 26 L 61 25 L 61 24 L 61 23 L 60 23 L 59 23 L 58 22 L 57 21 L 56 20 L 56 19 L 57 18 L 58 17 L 59 17 L 60 17 L 60 16 L 60 15 L 59 15 L 58 16 L 58 17 L 57 18 L 56 18 L 55 18 L 54 18 L 53 18 L 52 18 L 51 18 L 50 18 L 49 18 L 48 18 L 47 18 L 46 18 L 45 18 L 44 18 L 43 18 L 42 18 L 41 18 L 40 18 L 39 18 L 38 18 L 37 17 L 37 16 L 37 15 L 36 15 L 35 15 L 35 16 L 35 17 L 36 17 L 37 17 L 38 18 L 39 19 L 39 20 L 38 21 L 37 22 L 36 23 L 35 23 L 34 23 L 34 24 L 34 25 L 34 26 L 34 27 L 34 28 L 34 29 L 34 30 L 34 31 L 34 32 L 34 33 L 34 34 L 34 35 L 34 36 L 34 37 L 34 38 L 34 39 L 34 40 L 34 41 L 35 40 L 36 40 L 37 41 L 38 42 L 39 43 L 39 44 L 39 45 L 40 45 L 41 45 L 42 45 L 43 45 L 44 45 L 45 45 L 46 45 L 47 45 L 48 45 L 49 45 L 50 45 L 51 45 L 52 45 L 53 45 L 54 46 L 54 47 L 53 48 L 52 49 L 51 49 L 50 49 L 49 50 L 48 50 L 47 50 L 46 50 L 45 50 L 45 51 L 45 52 L 44 53 L 43 53 L 42 52 L 42 51 L 42 52 L 42 53 L 42 54 L 42 55 L 42 56 L 42 57 L 42 58 L 42 59 L 41 60 L 40 59 L 40 58 L 39 57 L 39 56 L 39 55 L 38 54 L 37 54 L 36 54 L 35 54 L 34 54 L 33 54 L 32 54 L 31 54 L 30 54 L 29 54 L 28 54 L 27 54 L 26 54 L 25 54 L 24 54 L 23 54 L 22 54 L 21 54 L 20 54 L 19 54 L 18 54 L 17 54 L 16 54 L 15 54 L 14 54 L 13 54 L 12 54 L 11 55 L 10 54 L 9 53 L 8 52 L 9 51 L 9 50 L 9 49 L 9 48 L 9 47 L 9 46 L 9 45 L 9 44 L 9 43 L 9 42 L 9 41 L 9 40 L 9 39 L 9 38 L 9 37 L 9 36 L 9 35 L 9 34 L 9 33 L 9 32 L 9 31 L 9 30 L 9 29 L 9 28 L 9 27 L 9 26 L 9 25 L 9 24 L 9 23 L 9 22 L 9 21 L 9 20 L 9 19 L 9 18 L 10 17 L 11 18 L 12 19 L 12 20 L 13 21 L 14 21 L 15 21 L 16 21 L 17 21 L 18 21 L 19 21 L 20 21 L 21 21 L 22 21 L 23 21 L 24 21 L 25 21 L 26 21 L 27 21 L 28 21 L 29 21 L 29 20 L 29 19 L 29 18 L 29 17 L 29 16 L 29 15 L 29 14 L 29 13 L 29 12 L 28 11 Z M 10 9 L 11 8 L 12 8 L 13 8 L 14 8 L 15 8 L 16 8 L 17 8 L 18 8 L 19 8 L 20 8 L 21 8 L 22 8 L 23 8 L 24 8 L 25 8 L 26 8 L 27 9 L 26 10 L 25 10 L 24 10 L 23 10 L 22 10 L 21 10 L 20 10 L 19 10 L 18 10 L 17 10 L 16 10 L 15 10 L 14 10 L 13 10 L 12 11 L 11 12 L 10 13 L 10 14 L 10 15 L 10 16 L 9 17 L 8 16 L 8 15 L 8 14 L 8 13 L 8 12 L 8 11 L 9 10 Z" fill="white" fill-rule="evenodd"/>
</svg>
