<?xml version="1.0" ?>
<svg xmlns="http://www.w3.org/2000/svg" width="91" height="70" viewBox="0 0 91 70">
 <path d="M 64 42 L 63 43 L 63 44 L 63 45 L 63 46 L 64 47 L 65 47 L 66 47 L 67 47 L 68 47 L 69 47 L 70 47 L 71 47 L 72 47 L 73 47 L 74 46 L 74 45 L 74 44 L 74 43 L 73 42 L 72 42 L 71 42 L 70 42 L 69 42 L 68 42 L 67 42 L 66 42 L 65 42 Z M 22 42 L 21 43 L 21 44 L 21 45 L 21 46 L 22 47 L 23 47 L 24 47 L 25 47 L 26 47 L 27 47 L 28 47 L 29 47 L 30 47 L 31 47 L 32 46 L 32 45 L 32 44 L 32 43 L 31 42 L 30 42 L 29 42 L 28 42 L 27 42 L 26 42 L 25 42 L 24 42 L 23 42 Z M 22 3 L 21 4 L 20 5 L 20 6 L 20 7 L 19 8 L 19 9 L 18 10 L 18 11 L 17 12 L 17 13 L 16 14 L 16 15 L 16 16 L 15 17 L 15 18 L 14 19 L 14 20 L 13 21 L 13 22 L 12 23 L 12 24 L 12 25 L 11 26 L 11 27 L 10 28 L 10 29 L 9 30 L 8 30 L 7 30 L 6 30 L 5 30 L 4 30 L 3 31 L 3 32 L 3 33 L 3 34 L 4 35 L 5 35 L 6 35 L 7 35 L 8 35 L 9 36 L 9 37 L 9 38 L 9 39 L 9 40 L 9 41 L 9 42 L 9 43 L 9 44 L 9 45 L 9 46 L 9 47 L 9 48 L 9 49 L 9 50 L 9 51 L 9 52 L 9 53 L 9 54 L 9 55 L 9 56 L 9 57 L 9 58 L 9 59 L 9 60 L 9 61 L 9 62 L 9 63 L 9 64 L 9 65 L 9 66 L 9 67 L 9 68 L 9 69 L 10 69 L 11 69 L 12 69 L 13 69 L 14 69 L 15 69 L 16 69 L 17 69 L 18 69 L 19 69 L 20 69 L 21 69 L 22 69 L 23 69 L 24 69 L 25 69 L 26 69 L 27 69 L 28 69 L 29 68 L 29 67 L 29 66 L 29 65 L 29 64 L 29 63 L 29 62 L 29 61 L 29 60 L 30 59 L 31 59 L 32 59 L 33 59 L 34 59 L 35 59 L 36 59 L 37 59 L 38 59 L 39 59 L 40 59 L 41 59 L 42 59 L 43 59 L 44 59 L 45 59 L 46 59 L 47 59 L 48 59 L 49 59 L 50 59 L 51 59 L 52 59 L 53 59 L 54 59 L 55 59 L 56 59 L 57 59 L 58 59 L 59 59 L 60 59 L 61 59 L 62 59 L 63 59 L 64 59 L 65 59 L 66 60 L 66 61 L 66 62 L 66 63 L 66 64 L 66 65 L 66 66 L 66 67 L 66 68 L 66 69 L 67 69 L 68 69 L 69 69 L 70 69 L 71 69 L 72 69 L 73 69 L 74 69 L 75 69 L 76 69 L 77 69 L 78 69 L 79 69 L 80 69 L 81 69 L 82 69 L 83 69 L 84 69 L 85 69 L 86 68 L 86 67 L 86 66 L 86 65 L 86 64 L 86 63 L 86 62 L 86 61 L 86 60 L 86 59 L 86 58 L 86 57 L 86 56 L 86 55 L 86 54 L 86 53 L 86 52 L 86 51 L 86 50 L 86 49 L 86 48 L 86 47 L 86 46 L 86 45 L 86 44 L 86 43 L 86 42 L 86 41 L 86 40 L 86 39 L 86 38 L 86 37 L 86 36 L 87 35 L 88 35 L 89 35 L 90 35 L 90 34 L 90 33 L 90 32 L 90 31 L 90 30 L 89 30 L 88 30 L 87 30 L 86 30 L 85 29 L 85 28 L 84 27 L 84 26 L 84 25 L 83 24 L 83 23 L 82 22 L 82 21 L 81 20 L 81 19 L 80 18 L 80 17 L 80 16 L 79 15 L 79 14 L 78 13 L 78 12 L 77 11 L 77 10 L 76 9 L 76 8 L 76 7 L 75 6 L 75 5 L 74 4 L 73 3 L 72 3 L 71 3 L 70 3 L 69 3 L 68 3 L 67 3 L 66 3 L 65 3 L 64 3 L 63 3 L 62 3 L 61 3 L 60 3 L 59 3 L 58 3 L 57 3 L 56 3 L 55 3 L 54 3 L 53 3 L 52 3 L 51 3 L 50 3 L 49 3 L 48 3 L 47 3 L 46 3 L 45 3 L 44 3 L 43 3 L 42 3 L 41 3 L 40 3 L 39 3 L 38 3 L 37 3 L 36 3 L 35 3 L 34 3 L 33 3 L 32 3 L 31 3 L 30 3 L 29 3 L 28 3 L 27 3 L 26 3 L 25 3 L 24 3 L 23 3 Z M 71 60 L 72 59 L 73 59 L 74 59 L 75 59 L 76 59 L 77 59 L 78 59 L 79 59 L 80 59 L 81 60 L 81 61 L 81 62 L 81 63 L 81 64 L 81 65 L 80 66 L 79 66 L 78 66 L 77 66 L 76 66 L 75 66 L 74 66 L 73 66 L 72 66 L 71 65 L 71 64 L 71 63 L 71 62 L 71 61 Z M 14 60 L 15 59 L 16 59 L 17 59 L 18 59 L 19 59 L 20 59 L 21 59 L 22 59 L 23 59 L 24 60 L 24 61 L 24 62 L 24 63 L 24 64 L 24 65 L 23 66 L 22 66 L 21 66 L 20 66 L 19 66 L 18 66 L 17 66 L 16 66 L 15 66 L 14 65 L 14 64 L 14 63 L 14 62 L 14 61 Z M 14 36 L 15 35 L 16 35 L 17 35 L 18 35 L 19 35 L 20 35 L 21 35 L 22 35 L 23 35 L 24 35 L 25 35 L 26 35 L 27 35 L 28 35 L 29 35 L 30 35 L 31 35 L 32 35 L 33 35 L 34 35 L 35 35 L 36 35 L 37 35 L 38 35 L 39 35 L 40 35 L 41 35 L 42 35 L 43 35 L 44 35 L 45 35 L 46 35 L 47 35 L 48 35 L 49 35 L 50 35 L 51 35 L 52 35 L 53 35 L 54 35 L 55 35 L 56 35 L 57 35 L 58 35 L 59 35 L 60 35 L 61 35 L 62 35 L 63 35 L 64 35 L 65 35 L 66 35 L 67 35 L 68 35 L 69 35 L 70 35 L 71 35 L 72 35 L 73 35 L 74 35 L 75 35 L 76 35 L 77 35 L 78 35 L 79 35 L 80 35 L 81 36 L 81 37 L 81 38 L 81 39 L 81 40 L 81 41 L 81 42 L 81 43 L 81 44 L 81 45 L 81 46 L 81 47 L 81 48 L 81 49 L 81 50 L 81 51 L 81 52 L 81 53 L 80 54 L 79 54 L 78 54 L 77 54 L 76 54 L 75 54 L 74 54 L 73 54 L 72 54 L 71 54 L 70 54 L 69 54 L 68 54 L 67 54 L 66 54 L 65 54 L 64 54 L 63 54 L 62 54 L 61 54 L 60 54 L 59 54 L 58 54 L 57 54 L 56 54 L 55 54 L 54 54 L 53 54 L 52 54 L 51 54 L 50 54 L 49 54 L 48 54 L 47 54 L 46 54 L 45 54 L 44 54 L 43 54 L 42 54 L 41 54 L 40 54 L 39 54 L 38 54 L 37 54 L 36 54 L 35 54 L 34 54 L 33 54 L 32 54 L 31 54 L 30 54 L 29 54 L 28 54 L 27 54 L 26 54 L 25 54 L 24 54 L 23 54 L 22 54 L 21 54 L 20 54 L 19 54 L 18 54 L 17 54 L 16 54 L 15 54 L 14 53 L 14 52 L 14 51 L 14 50 L 14 49 L 14 48 L 14 47 L 14 46 L 14 45 L 14 44 L 14 43 L 14 42 L 14 41 L 14 40 L 14 39 L 14 38 L 14 37 Z M 25 9 L 26 8 L 27 8 L 28 8 L 29 8 L 30 8 L 31 8 L 32 8 L 33 8 L 34 8 L 35 8 L 36 8 L 37 8 L 38 8 L 39 8 L 40 8 L 41 8 L 42 8 L 43 8 L 44 8 L 45 8 L 46 8 L 47 8 L 48 8 L 49 8 L 50 8 L 51 8 L 52 8 L 53 8 L 54 8 L 55 8 L 56 8 L 57 8 L 58 8 L 59 8 L 60 8 L 61 8 L 62 8 L 63 8 L 64 8 L 65 8 L 66 8 L 67 8 L 68 8 L 69 8 L 70 9 L 70 10 L 71 11 L 71 12 L 71 13 L 72 14 L 72 15 L 73 16 L 73 17 L 74 18 L 74 19 L 75 20 L 75 21 L 75 22 L 76 23 L 76 24 L 77 25 L 77 26 L 78 27 L 78 28 L 79 29 L 78 30 L 77 30 L 76 30 L 75 30 L 74 30 L 73 30 L 72 30 L 71 30 L 70 30 L 69 30 L 68 30 L 67 30 L 66 30 L 65 30 L 64 30 L 63 30 L 62 30 L 61 30 L 60 30 L 59 30 L 58 30 L 57 30 L 56 30 L 55 30 L 54 30 L 53 30 L 52 30 L 51 30 L 50 30 L 49 30 L 48 30 L 47 30 L 46 30 L 45 30 L 44 30 L 43 30 L 42 30 L 41 30 L 40 30 L 39 30 L 38 30 L 37 30 L 36 30 L 35 30 L 34 30 L 33 30 L 32 30 L 31 30 L 30 30 L 29 30 L 28 30 L 27 30 L 26 30 L 25 30 L 24 30 L 23 30 L 22 30 L 21 30 L 20 30 L 19 30 L 18 30 L 17 30 L 16 29 L 17 28 L 17 27 L 18 26 L 18 25 L 19 24 L 19 23 L 19 22 L 20 21 L 20 20 L 21 19 L 21 18 L 22 17 L 22 16 L 23 15 L 23 14 L 23 13 L 24 12 L 24 11 L 25 10 Z" fill="white" fill-rule="evenodd"/>
</svg>
