<svg width="363" height="276" viewBox="0 0 363 276" fill="none" xmlns="http://www.w3.org/2000/svg">
<path d="M17.7682 191.324C17.7211 191.324 17.676 191.306 17.6428 191.273C17.6095 191.24 17.5908 191.196 17.5908 191.15V187.748C17.5908 187.701 17.6095 187.657 17.6428 187.624C17.676 187.592 17.7211 187.573 17.7682 187.573C17.8152 187.573 17.8603 187.592 17.8935 187.624C17.9268 187.657 17.9455 187.701 17.9455 187.748V191.15C17.9455 191.196 17.9268 191.24 17.8935 191.273C17.8603 191.306 17.8152 191.324 17.7682 191.324Z" fill="#CCCCCC"/>
<path d="M17.7683 190.155C17.726 190.155 17.685 190.14 17.6529 190.113L15.5249 188.316C15.507 188.301 15.4923 188.283 15.4816 188.263C15.4709 188.242 15.4644 188.22 15.4625 188.197C15.4606 188.174 15.4634 188.151 15.4706 188.129C15.4779 188.107 15.4894 188.087 15.5047 188.069C15.5199 188.052 15.5386 188.037 15.5595 188.027C15.5804 188.017 15.6032 188.01 15.6266 188.009C15.6499 188.007 15.6734 188.01 15.6956 188.017C15.7178 188.025 15.7383 188.036 15.7559 188.051L17.8839 189.848C17.9114 189.871 17.931 189.902 17.9401 189.937C17.9492 189.971 17.9473 190.008 17.9347 190.041C17.9221 190.075 17.8994 190.103 17.8697 190.124C17.8399 190.144 17.8045 190.155 17.7683 190.155L17.7683 190.155Z" fill="#CCCCCC"/>
<path d="M31.4229 191.203C31.4242 189.492 32.116 187.852 33.3464 186.642C34.5767 185.433 36.2448 184.753 37.9841 184.753C39.7233 184.753 41.3914 185.433 42.6218 186.642C43.8521 187.852 44.5439 189.492 44.5453 191.203" fill="#F2F2F2"/>
<path d="M37.984 191.203C37.9369 191.203 37.8918 191.185 37.8586 191.152C37.8253 191.119 37.8066 191.075 37.8066 191.029V187.627C37.8066 187.581 37.8253 187.536 37.8586 187.504C37.8918 187.471 37.9369 187.453 37.984 187.453C38.031 187.453 38.0761 187.471 38.1094 187.504C38.1426 187.536 38.1613 187.581 38.1613 187.627V191.029C38.1613 191.075 38.1426 191.119 38.1094 191.152C38.0761 191.185 38.031 191.203 37.984 191.203Z" fill="#CCCCCC"/>
<path d="M37.9838 190.034C37.9414 190.034 37.9004 190.019 37.8683 189.992L35.7404 188.195C35.7225 188.181 35.7077 188.162 35.697 188.142C35.6862 188.121 35.6797 188.099 35.6778 188.076C35.6759 188.053 35.6787 188.03 35.6859 188.008C35.6932 187.986 35.7048 187.966 35.72 187.948C35.7353 187.931 35.7539 187.917 35.7749 187.906C35.7958 187.896 35.8186 187.89 35.842 187.888C35.8654 187.886 35.8888 187.889 35.911 187.897C35.9333 187.904 35.9538 187.916 35.9714 187.931L38.0994 189.727C38.1269 189.751 38.1465 189.782 38.1556 189.816C38.1646 189.851 38.1627 189.887 38.1502 189.921C38.1376 189.954 38.1149 189.983 38.0851 190.003C38.0554 190.023 38.02 190.034 37.9838 190.034L37.9838 190.034Z" fill="#CCCCCC"/>
<path d="M21.0227 238.521C27.3558 238.521 32.4898 237.343 32.4898 235.889C32.4898 234.435 27.3558 233.257 21.0227 233.257C14.6896 233.257 9.55566 234.435 9.55566 235.889C9.55566 237.343 14.6896 238.521 21.0227 238.521Z" fill="#F2F2F2"/>
<path d="M83.5529 204.701C83.6958 204.701 83.8328 204.644 83.9339 204.544C84.0349 204.444 84.0917 204.308 84.0917 204.166C84.0917 204.025 84.0349 203.889 83.9339 203.788C83.8328 203.688 83.6958 203.632 83.5529 203.632H78.4341V201.494H83.5529C83.6958 201.494 83.8328 201.438 83.9339 201.338C84.0349 201.238 84.0917 201.102 84.0917 200.96C84.0917 200.818 84.0349 200.682 83.9339 200.582C83.8328 200.482 83.6958 200.426 83.5529 200.426H39.9089C39.766 200.426 39.629 200.482 39.5279 200.582C39.4269 200.682 39.3701 200.818 39.3701 200.96C39.3701 201.102 39.4269 201.238 39.5279 201.338C39.629 201.438 39.766 201.494 39.9089 201.494H45.0277V203.632H39.9089C39.766 203.632 39.629 203.688 39.5279 203.788C39.4269 203.889 39.3701 204.025 39.3701 204.166C39.3701 204.308 39.4269 204.444 39.5279 204.544C39.629 204.644 39.766 204.701 39.9089 204.701H45.0277V206.838H39.9089C39.766 206.838 39.629 206.894 39.5279 206.995C39.4269 207.095 39.3701 207.231 39.3701 207.372C39.3701 207.514 39.4269 207.65 39.5279 207.75C39.629 207.851 39.766 207.907 39.9089 207.907H45.0277V210.044H40.4477C40.1619 210.044 39.8879 210.157 39.6858 210.357C39.4837 210.558 39.3701 210.83 39.3701 211.113C39.3701 211.396 39.4837 211.668 39.6858 211.869C39.8879 212.069 40.1619 212.182 40.4477 212.182H44.8077C44.7759 212.267 44.7592 212.358 44.7583 212.449V219.93C44.7583 220.143 44.8434 220.346 44.995 220.497C45.1466 220.647 45.3521 220.732 45.5665 220.732C45.7808 220.732 45.9864 220.647 46.138 220.497C46.2896 220.346 46.3747 220.143 46.3747 219.93V212.449C46.3738 212.358 46.3571 212.267 46.3253 212.182H77.1366C77.1048 212.267 77.088 212.358 77.0871 212.449V219.93C77.0871 220.143 77.1723 220.346 77.3239 220.497C77.4754 220.647 77.681 220.732 77.8953 220.732C78.1097 220.732 78.3153 220.647 78.4668 220.497C78.6184 220.346 78.7035 220.143 78.7035 219.93V212.449C78.7026 212.358 78.6859 212.267 78.6541 212.182H83.0141C83.2999 212.182 83.574 212.069 83.7761 211.869C83.9782 211.668 84.0917 211.396 84.0917 211.113C84.0917 210.83 83.9782 210.558 83.7761 210.357C83.574 210.157 83.2999 210.044 83.0141 210.044H78.4341V207.907H83.5529C83.6958 207.907 83.8328 207.851 83.9339 207.75C84.0349 207.65 84.0917 207.514 84.0917 207.372C84.0917 207.231 84.0349 207.095 83.9339 206.995C83.8328 206.894 83.6958 206.838 83.5529 206.838H78.4341V204.701H83.5529ZM46.1053 201.494H77.3565V203.632H46.1053V201.494ZM77.3565 210.044H46.1053V207.907H77.3565V210.044ZM77.3565 206.838H46.1053V204.701H77.3565V206.838Z" fill="#A2A2A2"/>
<path d="M351.703 192.529H0.335981C0.246873 192.529 0.161415 192.489 0.0984062 192.419C0.0353976 192.348 0 192.253 0 192.153C0 192.053 0.0353976 191.958 0.0984062 191.887C0.161415 191.817 0.246873 191.777 0.335981 191.777H351.703C351.792 191.777 351.878 191.817 351.941 191.887C352.004 191.958 352.039 192.053 352.039 192.153C352.039 192.253 352.004 192.348 351.941 192.419C351.878 192.489 351.792 192.529 351.703 192.529Z" fill="#E6E6E6"/>
<path d="M251.894 206.442H216.346C216.244 206.442 216.147 206.403 216.075 206.332C216.004 206.262 215.963 206.166 215.963 206.066C215.963 205.966 216.004 205.871 216.075 205.8C216.147 205.73 216.244 205.69 216.346 205.69H251.894C251.995 205.69 252.092 205.73 252.164 205.8C252.235 205.871 252.276 205.966 252.276 206.066C252.276 206.166 252.235 206.262 252.164 206.332C252.092 206.403 251.995 206.442 251.894 206.442Z" fill="#E6E6E6"/>
<path d="M274.937 69.3063C281.903 69.3063 287.55 63.7505 287.55 56.8972C287.55 50.0438 281.903 44.4881 274.937 44.4881C267.97 44.4881 262.323 50.0438 262.323 56.8972C262.323 63.7505 267.97 69.3063 274.937 69.3063Z" fill="#FFFBE7"/>
<path d="M10.6916 95.8742C13.699 86.6356 21.0425 79.4708 29.7513 75.2094C40.0843 70.1532 51.9581 69.5807 63.1775 71.5486C75.289 73.6729 86.6087 78.5701 97.5656 83.9142C108.313 89.1561 118.887 94.6912 130.064 99.0231C152.377 107.659 176.027 112.478 199.992 113.273C221.562 113.981 244.625 111.656 263.093 99.7291C280.016 88.8009 290.784 70.7725 296.393 51.9798C297.111 49.5739 297.749 47.1473 298.308 44.7C298.471 43.9931 297.365 43.6913 297.202 44.4001C292.678 64.0245 283.031 83.42 266.547 95.9295C248.72 109.459 225.322 112.587 203.426 112.229C179.2 111.813 155.23 107.262 132.586 98.7805C121.121 94.4868 110.303 88.9114 99.3467 83.5287C88.6311 78.2643 77.6145 73.3363 65.8312 70.9083C55.0715 68.6912 43.5516 68.5561 33.1776 72.5014C24.6355 75.7499 16.8468 81.5403 12.2887 89.4614C11.1773 91.4026 10.2716 93.451 9.58582 95.5744C9.36023 96.2674 10.467 96.5641 10.6916 95.8742Z" fill="#FFFBE7"/>
<path d="M197.616 164.917C197.616 158.276 192.14 142.517 185.384 142.517C178.629 142.517 173.153 158.276 173.153 164.917C173.153 168.108 174.442 171.169 176.735 173.426C179.029 175.682 182.14 176.95 185.384 176.95C188.628 176.95 191.74 175.682 194.033 173.426C196.327 171.169 197.616 168.108 197.616 164.917H197.616Z" fill="#DCDDDC"/>
<path d="M194.558 164.917C194.558 158.276 189.082 142.517 182.326 142.517C175.571 142.517 170.095 158.276 170.095 164.917C170.095 168.108 171.383 171.169 173.677 173.426C175.971 175.682 179.082 176.95 182.326 176.95C185.57 176.95 188.681 175.682 190.975 173.426C193.269 171.169 194.558 168.108 194.558 164.917H194.558Z" fill="#EAECEB"/>
<path d="M182.708 191.822C182.607 191.822 182.51 191.783 182.438 191.712C182.366 191.642 182.326 191.546 182.326 191.446V157.927C182.326 157.827 182.366 157.731 182.438 157.661C182.51 157.59 182.607 157.55 182.708 157.55C182.81 157.55 182.907 157.59 182.979 157.661C183.05 157.731 183.091 157.827 183.091 157.927V191.446C183.091 191.546 183.05 191.642 182.979 191.712C182.907 191.783 182.81 191.822 182.708 191.822Z" fill="#CACACA"/>
<path d="M182.708 163.422C182.633 163.422 182.559 163.399 182.496 163.358C182.433 163.317 182.384 163.258 182.355 163.189C182.326 163.121 182.319 163.045 182.334 162.972C182.348 162.899 182.385 162.832 182.438 162.78L187.437 157.862C187.508 157.791 187.606 157.752 187.707 157.752C187.808 157.752 187.906 157.791 187.977 157.862C188.049 157.932 188.089 158.028 188.089 158.128C188.089 158.227 188.049 158.323 187.977 158.394L182.979 163.311C182.943 163.346 182.901 163.374 182.855 163.393C182.808 163.412 182.759 163.422 182.708 163.422Z" fill="#CACACA"/>
<path d="M83.4369 63.4777H77.3211C76.8651 63.4772 76.4279 63.2988 76.1054 62.9816C75.783 62.6643 75.6016 62.2342 75.6011 61.7856V47.8724C75.6016 47.4237 75.783 46.9936 76.1054 46.6764C76.4279 46.3591 76.8651 46.1807 77.3211 46.1802H83.4369C83.8929 46.1807 84.3301 46.3591 84.6526 46.6764C84.9751 46.9936 85.1565 47.4237 85.157 47.8724V61.7856C85.1565 62.2342 84.9751 62.6643 84.6526 62.9816C84.3301 63.2988 83.8929 63.4772 83.4369 63.4777Z" fill="#FFFBE7"/>
<path d="M107.518 193.209H76.1743C75.3129 193.208 74.4871 192.871 73.878 192.272C73.2689 191.673 72.9263 190.86 72.9253 190.013V65.5459C72.9263 64.6985 73.2689 63.8861 73.878 63.2869C74.4871 62.6877 75.3129 62.3506 76.1743 62.3496H107.518C108.379 62.3506 109.205 62.6876 109.814 63.2869C110.423 63.8861 110.766 64.6985 110.767 65.5459V190.013C110.766 190.86 110.423 191.673 109.814 192.272C109.205 192.871 108.379 193.208 107.518 193.209Z" fill="#FFFBE7"/>
<path d="M88.7881 193.209H57.4448C56.5834 193.208 55.7576 192.871 55.1485 192.272C54.5394 191.673 54.1968 190.86 54.1958 190.013V65.5459C54.1968 64.6985 54.5394 63.8861 55.1485 63.2869C55.7576 62.6877 56.5834 62.3506 57.4448 62.3496H88.7881C89.6495 62.3506 90.4754 62.6877 91.0844 63.2869C91.6935 63.8861 92.0362 64.6985 92.0371 65.5459V190.013C92.0362 190.86 91.6935 191.673 91.0844 192.272C90.4754 192.871 89.6495 193.208 88.7881 193.209Z" fill="#FFFBE7"/>
<path d="M77.703 63.4777H71.5872C71.1312 63.4772 70.694 63.2988 70.3715 62.9816C70.0491 62.6643 69.8677 62.2342 69.8672 61.7856V47.8724C69.8677 47.4237 70.0491 46.9936 70.3715 46.6764C70.694 46.3591 71.1312 46.1807 71.5872 46.1802H77.703C78.1591 46.1807 78.5963 46.3591 78.9187 46.6764C79.2412 46.9936 79.4226 47.4237 79.4231 47.8724V61.7856C79.4226 62.2342 79.2412 62.6643 78.9187 62.9816C78.5963 63.2988 78.1591 63.4772 77.703 63.4777Z" fill="#FFFBE7"/>
<path d="M69.6761 90.5521H62.4136C62.1602 90.5518 61.9174 90.4527 61.7382 90.2765C61.5591 90.1002 61.4583 89.8613 61.458 89.612V78.7071C61.4583 78.4578 61.5591 78.2189 61.7382 78.0426C61.9174 77.8664 62.1602 77.7673 62.4136 77.767H69.6761C69.9294 77.7673 70.1723 77.8664 70.3515 78.0426C70.5306 78.2189 70.6314 78.4578 70.6317 78.7071V89.612C70.6314 89.8613 70.5306 90.1002 70.3515 90.2765C70.1723 90.4527 69.9294 90.5518 69.6761 90.5521Z" fill="#0E696C"/>
<path d="M83.8191 90.5521H76.5567C76.3033 90.5518 76.0604 90.4527 75.8813 90.2765C75.7021 90.1002 75.6014 89.8613 75.6011 89.612V78.7071C75.6014 78.4578 75.7021 78.2189 75.8813 78.0426C76.0604 77.8664 76.3033 77.7673 76.5567 77.767H83.8191C84.0725 77.7673 84.3154 77.8664 84.4945 78.0426C84.6737 78.2189 84.7744 78.4578 84.7747 78.7071V89.612C84.7744 89.8613 84.6737 90.1002 84.4945 90.2765C84.3154 90.4527 84.0725 90.5518 83.8191 90.5521Z" fill="#0E696C"/>
<path d="M69.6761 110.482H62.4136C62.1602 110.482 61.9174 110.382 61.7382 110.206C61.5591 110.03 61.4583 109.791 61.458 109.542V98.6368C61.4583 98.3876 61.5591 98.1487 61.7382 97.9724C61.9174 97.7962 62.1602 97.697 62.4136 97.6968H69.6761C69.9294 97.697 70.1723 97.7962 70.3515 97.9724C70.5306 98.1487 70.6314 98.3876 70.6317 98.6368V109.542C70.6314 109.791 70.5306 110.03 70.3515 110.206C70.1723 110.382 69.9294 110.482 69.6761 110.482Z" fill="#0E696C"/>
<path d="M83.8191 110.482H76.5567C76.3033 110.482 76.0604 110.382 75.8813 110.206C75.7021 110.03 75.6014 109.791 75.6011 109.542V98.6368C75.6014 98.3876 75.7021 98.1487 75.8813 97.9724C76.0604 97.7962 76.3033 97.697 76.5567 97.6968H83.8191C84.0725 97.697 84.3154 97.7962 84.4945 97.9724C84.6737 98.1487 84.7744 98.3876 84.7747 98.6368V109.542C84.7744 109.791 84.6737 110.03 84.4945 110.206C84.3154 110.382 84.0725 110.482 83.8191 110.482Z" fill="#0E696C"/>
<path d="M69.6761 130.412H62.4136C62.1602 130.411 61.9174 130.312 61.7382 130.136C61.5591 129.96 61.4583 129.721 61.458 129.472V118.567C61.4583 118.317 61.5591 118.078 61.7382 117.902C61.9174 117.726 62.1602 117.627 62.4136 117.627H69.6761C69.9294 117.627 70.1723 117.726 70.3515 117.902C70.5306 118.078 70.6314 118.317 70.6317 118.567V129.472C70.6314 129.721 70.5306 129.96 70.3515 130.136C70.1723 130.312 69.9294 130.411 69.6761 130.412Z" fill="#0E696C"/>
<path d="M83.8191 130.412H76.5567C76.3033 130.411 76.0604 130.312 75.8813 130.136C75.7021 129.96 75.6014 129.721 75.6011 129.472V118.567C75.6014 118.317 75.7021 118.078 75.8813 117.902C76.0604 117.726 76.3033 117.627 76.5567 117.627H83.8191C84.0725 117.627 84.3154 117.726 84.4945 117.902C84.6737 118.078 84.7744 118.317 84.7747 118.567V129.472C84.7744 129.721 84.6737 129.96 84.4945 130.136C84.3154 130.312 84.0725 130.411 83.8191 130.412Z" fill="#0E696C"/>
<path d="M69.6761 150.341H62.4136C62.1602 150.341 61.9174 150.242 61.7382 150.066C61.5591 149.89 61.4583 149.651 61.458 149.401V138.496C61.4583 138.247 61.5591 138.008 61.7382 137.832C61.9174 137.656 62.1602 137.557 62.4136 137.556H69.6761C69.9294 137.557 70.1723 137.656 70.3515 137.832C70.5306 138.008 70.6314 138.247 70.6317 138.496V149.401C70.6314 149.651 70.5306 149.89 70.3515 150.066C70.1723 150.242 69.9294 150.341 69.6761 150.341Z" fill="#0E696C"/>
<path d="M83.8191 150.341H76.5567C76.3033 150.341 76.0604 150.242 75.8813 150.066C75.7021 149.89 75.6014 149.651 75.6011 149.401V138.496C75.6014 138.247 75.7021 138.008 75.8813 137.832C76.0604 137.656 76.3033 137.557 76.5567 137.556H83.8191C84.0725 137.557 84.3154 137.656 84.4945 137.832C84.6737 138.008 84.7744 138.247 84.7747 138.496V149.401C84.7744 149.651 84.6737 149.89 84.4945 150.066C84.3154 150.242 84.0725 150.341 83.8191 150.341Z" fill="#0E696C"/>
<path d="M69.6761 170.271H62.4136C62.1602 170.271 61.9174 170.172 61.7382 169.996C61.5591 169.819 61.4583 169.58 61.458 169.331V158.426C61.4583 158.177 61.5591 157.938 61.7382 157.762C61.9174 157.585 62.1602 157.486 62.4136 157.486H69.6761C69.9294 157.486 70.1723 157.585 70.3515 157.762C70.5306 157.938 70.6314 158.177 70.6317 158.426V169.331C70.6314 169.58 70.5306 169.819 70.3515 169.996C70.1723 170.172 69.9294 170.271 69.6761 170.271Z" fill="#0E696C"/>
<path d="M83.8191 170.271H76.5567C76.3033 170.271 76.0604 170.172 75.8813 169.996C75.7021 169.819 75.6014 169.58 75.6011 169.331V158.426C75.6014 158.177 75.7021 157.938 75.8813 157.762C76.0604 157.585 76.3033 157.486 76.5567 157.486H83.8191C84.0725 157.486 84.3154 157.585 84.4945 157.762C84.6737 157.938 84.7744 158.177 84.7747 158.426V169.331C84.7744 169.58 84.6737 169.819 84.4945 169.996C84.3154 170.172 84.0725 170.271 83.8191 170.271Z" fill="#0E696C"/>
<path d="M241.3 129.284H235.184C234.728 129.283 234.291 129.105 233.969 128.787C233.646 128.47 233.465 128.04 233.464 127.591V119.695C233.465 119.246 233.646 118.816 233.969 118.499C234.291 118.182 234.728 118.003 235.184 118.003H241.3C241.756 118.003 242.193 118.182 242.516 118.499C242.838 118.816 243.02 119.246 243.02 119.695V127.591C243.02 128.04 242.838 128.47 242.516 128.787C242.193 129.105 241.756 129.283 241.3 129.284Z" fill="#FFFBE7"/>
<path d="M292.902 193.585H261.559C260.697 193.584 259.871 193.247 259.262 192.648C258.653 192.049 258.311 191.236 258.31 190.389V130.6C258.311 129.752 258.653 128.94 259.262 128.341C259.871 127.741 260.697 127.404 261.559 127.403H292.902C293.763 127.404 294.589 127.741 295.198 128.341C295.807 128.94 296.15 129.752 296.151 130.6V190.389C296.15 191.236 295.807 192.049 295.198 192.648C294.589 193.247 293.763 193.584 292.902 193.585Z" fill="#FFFBE7"/>
<path d="M274.172 193.585H219.895C219.034 193.584 218.208 193.247 217.599 192.648C216.99 192.049 216.647 191.236 216.646 190.389V130.6C216.647 129.752 216.99 128.94 217.599 128.341C218.208 127.741 219.034 127.404 219.895 127.403H274.172C275.034 127.404 275.86 127.741 276.469 128.341C277.078 128.94 277.421 129.752 277.421 130.6V190.389C277.421 191.236 277.078 192.049 276.469 192.648C275.86 193.247 275.034 193.584 274.172 193.585Z" fill="#FFFBE7"/>
<path d="M235.566 129.284H229.451C228.994 129.283 228.557 129.105 228.235 128.787C227.912 128.47 227.731 128.04 227.73 127.591V119.695C227.731 119.246 227.912 118.816 228.235 118.499C228.557 118.182 228.994 118.003 229.451 118.003H235.566C236.022 118.003 236.46 118.182 236.782 118.499C237.104 118.816 237.286 119.246 237.286 119.695V127.591C237.286 128.04 237.104 128.47 236.782 128.787C236.46 129.105 236.022 129.283 235.566 129.284Z" fill="#FFFBE7"/>
<path d="M243.594 156.922H236.331C236.078 156.922 235.835 156.823 235.656 156.646C235.477 156.47 235.376 156.231 235.375 155.982V145.077C235.376 144.828 235.477 144.589 235.656 144.413C235.835 144.236 236.078 144.137 236.331 144.137H243.594C243.847 144.137 244.09 144.236 244.269 144.413C244.448 144.589 244.549 144.828 244.549 145.077V155.982C244.549 156.231 244.448 156.47 244.269 156.646C244.09 156.823 243.847 156.922 243.594 156.922Z" fill="#0E696C"/>
<path d="M257.736 156.922H250.474C250.22 156.922 249.977 156.823 249.798 156.646C249.619 156.47 249.518 156.231 249.518 155.982V145.077C249.518 144.828 249.619 144.589 249.798 144.413C249.977 144.236 250.22 144.137 250.474 144.137H257.736C257.989 144.137 258.232 144.236 258.412 144.413C258.591 144.589 258.691 144.828 258.692 145.077V155.982C258.691 156.231 258.591 156.47 258.412 156.646C258.232 156.823 257.989 156.922 257.736 156.922Z" fill="#0E696C"/>
<path d="M243.594 176.852H236.331C236.078 176.851 235.835 176.752 235.656 176.576C235.477 176.4 235.376 176.161 235.375 175.912V165.007C235.376 164.757 235.477 164.519 235.656 164.342C235.835 164.166 236.078 164.067 236.331 164.067H243.594C243.847 164.067 244.09 164.166 244.269 164.342C244.448 164.519 244.549 164.757 244.549 165.007V175.912C244.549 176.161 244.448 176.4 244.269 176.576C244.09 176.752 243.847 176.851 243.594 176.852Z" fill="#0E696C"/>
<path d="M257.736 176.852H250.474C250.22 176.851 249.977 176.752 249.798 176.576C249.619 176.4 249.518 176.161 249.518 175.912V165.007C249.518 164.757 249.619 164.519 249.798 164.342C249.977 164.166 250.22 164.067 250.474 164.067H257.736C257.989 164.067 258.232 164.166 258.412 164.342C258.591 164.519 258.691 164.757 258.692 165.007V175.912C258.691 176.161 258.591 176.4 258.412 176.576C258.232 176.752 257.989 176.851 257.736 176.852Z" fill="#0E696C"/>
<path d="M184.238 35.2429C184.238 36.0185 184.212 36.7909 184.162 37.5541C183.872 41.9651 182.737 46.2827 180.814 50.28C180.798 50.314 180.783 50.3483 180.767 50.3792C180.678 50.5653 180.587 50.7485 180.492 50.9315C177.574 56.6847 173.112 61.547 167.586 64.9941C162.059 68.4411 155.679 70.3421 149.133 70.4918L149.49 90.5455L154.121 88.1504L154.949 89.6956L149.525 92.4969L150.154 127.87L150.185 191.965H146.635L146.67 127.87L147.748 70.495C143.004 70.4286 138.321 69.4379 133.97 67.5803C129.619 65.7226 125.688 63.0352 122.405 59.674C122.177 59.4444 121.956 59.2087 121.735 58.9728C121.725 58.9636 121.719 58.9542 121.712 58.948C118.975 56.0201 116.762 52.6595 115.166 49.008C115.2 49.0484 115.238 49.0825 115.273 49.1228C111.665 40.8446 111.42 31.5256 114.588 23.0758C117.756 14.626 124.097 7.68533 132.312 3.67637C132.435 3.61745 132.565 3.55837 132.688 3.49641C140.814 -0.344503 150.113 -1.04909 158.743 1.52232C167.373 4.09373 174.703 9.75342 179.281 17.3795C179.499 17.7393 179.711 18.1086 179.913 18.4777C182.758 23.6243 184.245 29.3879 184.238 35.2429Z" fill="#FFFBE7"/>
<path opacity="0.1" d="M278.722 224.564C281.59 224.564 284.184 224.722 286.06 224.975C286.999 225.102 287.754 225.251 288.274 225.417C288.534 225.5 288.731 225.587 288.861 225.672C288.994 225.76 289.036 225.834 289.037 225.89C289.037 225.946 288.994 226.021 288.861 226.109C288.731 226.194 288.534 226.279 288.274 226.363C287.754 226.528 286.999 226.679 286.06 226.806C284.184 227.059 281.589 227.217 278.722 227.217C275.855 227.217 273.261 227.059 271.384 226.806C270.446 226.679 269.689 226.529 269.169 226.363C268.909 226.28 268.713 226.194 268.583 226.109C268.45 226.021 268.407 225.946 268.407 225.89C268.407 225.834 268.45 225.76 268.583 225.672C268.713 225.587 268.909 225.5 269.169 225.417C269.689 225.251 270.446 225.102 271.384 224.975C273.261 224.722 275.855 224.564 278.722 224.564Z" fill="#0E696C" stroke="#0E696C" stroke-width="0.15479"/>
<path opacity="0.1" d="M318.53 228.535C321.398 228.535 323.992 228.693 325.868 228.946C326.807 229.073 327.563 229.223 328.082 229.388C328.342 229.472 328.539 229.558 328.669 229.643C328.802 229.731 328.845 229.805 328.845 229.861C328.845 229.917 328.802 229.992 328.669 230.08C328.539 230.165 328.342 230.251 328.082 230.334C327.563 230.5 326.807 230.65 325.868 230.777C323.992 231.031 321.398 231.188 318.53 231.188C315.663 231.188 313.069 231.031 311.192 230.777C310.254 230.65 309.497 230.5 308.978 230.334C308.718 230.251 308.521 230.165 308.392 230.08C308.258 229.992 308.215 229.917 308.215 229.861C308.215 229.805 308.258 229.731 308.392 229.643C308.521 229.558 308.717 229.472 308.978 229.388C309.497 229.223 310.254 229.073 311.192 228.946C313.069 228.693 315.663 228.535 318.53 228.535Z" fill="#0E696C" stroke="#0E696C" stroke-width="0.15479"/>
<path opacity="0.1" d="M302.597 240.247C304.635 240.247 306.478 240.359 307.81 240.539C308.477 240.629 309.013 240.736 309.38 240.853C309.564 240.912 309.702 240.972 309.792 241.031C309.885 241.093 309.907 241.14 309.907 241.168C309.907 241.196 309.885 241.243 309.792 241.305C309.702 241.364 309.564 241.423 309.38 241.482C309.013 241.6 308.477 241.707 307.81 241.797C306.478 241.977 304.635 242.088 302.597 242.088C300.56 242.088 298.716 241.977 297.383 241.797C296.717 241.707 296.181 241.6 295.814 241.482C295.63 241.423 295.492 241.364 295.402 241.305C295.309 241.243 295.287 241.196 295.287 241.168C295.287 241.14 295.309 241.093 295.402 241.031C295.492 240.972 295.63 240.912 295.814 240.853C296.181 240.736 296.717 240.629 297.383 240.539C298.716 240.359 300.56 240.247 302.597 240.247Z" fill="#0E696C" stroke="#0E696C" stroke-width="0.15479"/>
<path opacity="0.1" d="M343.913 239.249C345.951 239.249 347.794 239.361 349.126 239.541C349.793 239.631 350.329 239.738 350.696 239.856C350.88 239.914 351.018 239.974 351.107 240.033C351.201 240.095 351.223 240.142 351.223 240.17C351.223 240.198 351.201 240.245 351.107 240.307C351.018 240.366 350.88 240.426 350.696 240.484C350.329 240.602 349.793 240.709 349.126 240.799C347.794 240.979 345.95 241.09 343.913 241.09C341.875 241.09 340.032 240.979 338.699 240.799C338.033 240.709 337.497 240.602 337.13 240.484C336.946 240.426 336.808 240.366 336.718 240.307C336.625 240.245 336.603 240.198 336.603 240.17C336.603 240.142 336.624 240.095 336.718 240.033C336.808 239.974 336.946 239.914 337.13 239.856C337.497 239.738 338.033 239.631 338.699 239.541C340.032 239.361 341.875 239.249 343.913 239.249Z" fill="#0E696C" stroke="#0E696C" stroke-width="0.15479"/>
<path d="M321.093 163.767C333.675 149.713 347.952 151.396 354.347 153.134H354.348C355.996 153.566 357.528 154.345 358.84 155.416C360.07 156.422 361.078 157.662 361.803 159.061L361.943 159.343C363.055 161.704 363.511 164.798 361.725 168.424C359.936 172.055 355.894 176.228 347.991 180.729C334.734 188.28 327.69 197.238 323.961 204.31C322.097 207.846 321.06 210.909 320.49 213.09C320.205 214.181 320.038 215.051 319.94 215.649C319.892 215.947 319.861 216.178 319.843 216.334C319.833 216.412 319.826 216.472 319.822 216.512C319.82 216.532 319.819 216.548 319.818 216.558C319.818 216.563 319.818 216.567 319.817 216.57V216.573L318.711 229.139C318.698 229.094 318.683 229.045 318.668 228.993C318.565 228.644 318.417 228.13 318.234 227.469C317.869 226.148 317.366 224.239 316.814 221.89C315.712 217.191 314.418 210.731 313.65 203.683C312.882 196.634 312.641 189 313.644 181.955C314.646 174.909 316.893 168.458 321.093 163.767Z" fill="#0E696C" stroke="#0E696C" stroke-width="0.15479"/>
<path d="M352.085 159.726C352.085 159.726 309.121 172.942 318.753 229.547L352.085 159.726Z" fill="#0E696C"/>
<path d="M352.085 159.726C352.085 159.726 309.121 172.942 318.753 229.547" stroke="#0E696C" stroke-width="0.15479" stroke-miterlimit="10"/>
<path d="M326.991 164.463C326.991 164.463 332.907 168.386 331.026 174.279L326.991 164.463Z" fill="#0E696C"/>
<path d="M326.991 164.463C326.991 164.463 332.907 168.386 331.026 174.279" stroke="#0E696C" stroke-width="0.15479" stroke-miterlimit="10"/>
<path d="M347.776 167.954C347.776 167.954 344.159 164.335 339.757 166.332L347.776 167.954Z" fill="#0E696C"/>
<path d="M347.776 167.954C347.776 167.954 344.159 164.335 339.757 166.332" stroke="#0E696C" stroke-width="0.15479" stroke-miterlimit="10"/>
<path d="M330.793 186.158C330.793 186.158 324.442 182.987 322.8 186.958L330.793 186.158Z" fill="#0E696C"/>
<path d="M330.793 186.158C330.793 186.158 324.442 182.987 322.8 186.958" stroke="#0E696C" stroke-width="0.15479" stroke-miterlimit="10"/>
<path d="M339.911 196.583C341.949 196.908 342.97 198.78 343.471 200.795L343.565 201.199C344.101 203.809 343.85 206.511 342.85 208.977L342.64 209.467C340.234 214.899 333.78 225.203 318.313 229.795C318.343 229.736 318.38 229.662 318.425 229.572C318.551 229.322 318.737 228.955 318.975 228.489C319.451 227.557 320.136 226.225 320.972 224.63C322.645 221.439 324.926 217.194 327.352 212.972C329.778 208.749 332.35 204.551 334.607 201.457C335.736 199.91 336.784 198.641 337.695 197.783C338.15 197.354 338.568 197.031 338.943 196.826C339.318 196.621 339.642 196.54 339.911 196.583Z" fill="#0E696C" stroke="#0E696C" stroke-width="0.15479"/>
<path d="M339.796 202.99C339.796 202.99 321.879 228.549 318.417 229.671L339.796 202.99Z" fill="#0E696C"/>
<path d="M339.796 202.99C339.796 202.99 321.879 228.549 318.417 229.671" stroke="#0E696C" stroke-width="0.15479" stroke-miterlimit="10"/>
<path d="M296.923 196.583C297.192 196.54 297.516 196.621 297.891 196.826C298.266 197.031 298.685 197.354 299.14 197.783C300.05 198.641 301.098 199.91 302.227 201.457C304.484 204.551 307.056 208.749 309.483 212.972C311.909 217.194 314.189 221.439 315.862 224.63C316.698 226.225 317.383 227.557 317.859 228.489C318.097 228.955 318.283 229.322 318.409 229.572C318.454 229.661 318.491 229.735 318.52 229.794C303.054 225.202 296.601 214.899 294.195 209.467H294.194C293.02 206.872 292.698 203.983 293.27 201.199C293.733 199.036 294.749 196.93 296.923 196.583Z" fill="#0E696C" stroke="#0E696C" stroke-width="0.15479"/>
<path d="M297.039 202.99C297.039 202.99 314.956 228.549 318.417 229.671L297.039 202.99Z" fill="#0E696C"/>
<path d="M297.039 202.99C297.039 202.99 314.956 228.549 318.417 229.671" stroke="#0E696C" stroke-width="0.15479" stroke-miterlimit="10"/>
<path d="M344.667 233.365C344.902 233.338 345.116 233.387 345.267 233.543H345.268C345.379 233.674 345.452 233.832 345.479 234.001V234.002V234.005C345.565 234.434 345.538 234.879 345.398 235.295C345.259 235.711 345.012 236.084 344.682 236.378L344.557 236.489L344.723 236.513C345.076 236.561 345.403 236.454 345.702 236.284C346 236.115 346.277 235.88 346.528 235.666C346.778 235.453 347.064 235.245 347.361 235.119C347.656 234.994 347.956 234.952 348.242 235.058C348.492 235.181 348.691 235.386 348.807 235.636C348.922 235.886 348.948 236.168 348.878 236.435C348.715 236.986 348.385 237.476 347.933 237.839L347.929 237.842C347.248 238.453 346.487 238.971 345.666 239.382H342.022C342.001 239.325 341.976 239.269 341.946 239.216L341.942 239.211C341.62 238.732 341.193 238.331 340.692 238.037L340.689 238.036L340.453 237.901C339.909 237.576 339.418 237.172 338.996 236.702H338.997C338.771 236.437 338.642 236.106 338.631 235.761C338.62 235.418 338.725 235.081 338.93 234.804C339.147 234.627 339.4 234.497 339.672 234.421C339.947 234.344 340.236 234.324 340.519 234.364V234.366L340.532 234.365C340.872 234.354 341.208 234.432 341.508 234.589C341.727 234.766 341.9 234.992 342.011 235.249C342.122 235.507 342.168 235.789 342.144 236.068C342.086 236.658 342.094 237.252 342.168 237.84L342.322 237.831C342.329 236.25 342.698 234.524 343.982 233.635C344.181 233.497 344.43 233.393 344.667 233.365Z" fill="#0E696C" stroke="#0E696C" stroke-width="0.15479"/>
<path d="M279.622 219.606C279.857 219.579 280.071 219.628 280.222 219.784H280.223C280.334 219.916 280.407 220.075 280.434 220.243V220.246C280.52 220.676 280.493 221.12 280.354 221.536C280.214 221.952 279.967 222.325 279.637 222.619L279.512 222.731L279.678 222.754C280.031 222.802 280.358 222.695 280.657 222.525C280.955 222.356 281.232 222.121 281.483 221.907C281.734 221.695 282.019 221.487 282.316 221.36C282.611 221.235 282.912 221.193 283.197 221.299C283.447 221.423 283.646 221.627 283.762 221.877C283.877 222.127 283.903 222.41 283.833 222.676C283.67 223.227 283.34 223.717 282.888 224.08L282.884 224.083C282.203 224.694 281.442 225.212 280.621 225.623H276.978C276.956 225.566 276.931 225.51 276.901 225.457L276.897 225.452C276.576 224.974 276.149 224.572 275.647 224.278L275.645 224.277L275.408 224.143C274.942 223.864 274.514 223.526 274.136 223.14L273.95 222.942C273.725 222.678 273.597 222.347 273.586 222.002C273.575 221.659 273.68 221.322 273.885 221.045C274.102 220.868 274.355 220.738 274.627 220.662C274.902 220.585 275.191 220.566 275.474 220.606V220.607L275.487 220.606C275.827 220.596 276.163 220.673 276.463 220.83C276.683 221.007 276.855 221.233 276.966 221.49C277.077 221.749 277.123 222.03 277.099 222.31C277.041 222.899 277.049 223.493 277.123 224.081L277.277 224.072C277.284 222.492 277.653 220.765 278.938 219.876C279.136 219.739 279.385 219.634 279.622 219.606Z" fill="#0E696C" stroke="#0E696C" stroke-width="0.15479"/>
<path d="M301.3 233.365C301.535 233.338 301.749 233.387 301.9 233.543H301.901C302.012 233.674 302.085 233.832 302.112 234.001V234.002V234.005C302.199 234.434 302.171 234.879 302.032 235.295C301.892 235.711 301.645 236.084 301.315 236.378L301.19 236.489L301.356 236.513C301.709 236.561 302.037 236.454 302.335 236.284C302.633 236.115 302.91 235.88 303.162 235.666C303.412 235.453 303.698 235.245 303.995 235.119C304.29 234.994 304.59 234.952 304.875 235.058C305.125 235.181 305.324 235.386 305.44 235.636C305.556 235.886 305.581 236.168 305.511 236.435C305.348 236.986 305.019 237.476 304.566 237.839L304.562 237.842C303.881 238.453 303.12 238.971 302.299 239.382H298.656C298.634 239.325 298.61 239.269 298.58 239.216L298.576 239.211C298.254 238.732 297.827 238.331 297.326 238.037L297.323 238.036L297.086 237.901C296.543 237.576 296.051 237.172 295.629 236.702H295.63C295.405 236.437 295.275 236.106 295.264 235.761C295.253 235.418 295.358 235.081 295.563 234.804C295.78 234.627 296.033 234.497 296.305 234.421C296.58 234.344 296.869 234.323 297.152 234.363V234.366L297.166 234.365C297.505 234.354 297.842 234.432 298.141 234.589C298.361 234.766 298.533 234.992 298.644 235.249C298.756 235.507 298.801 235.789 298.777 236.068C298.719 236.658 298.728 237.252 298.801 237.84L298.956 237.831C298.963 236.25 299.331 234.524 300.616 233.635C300.814 233.497 301.063 233.393 301.3 233.365Z" fill="#0E696C" stroke="#0E696C" stroke-width="0.15479"/>
<path d="M21.4706 236.286C21.4706 236.286 26.1912 220.519 20.5838 208.911C18.2004 204.058 17.4815 198.576 18.535 193.287C19.055 190.78 19.8074 188.326 20.7826 185.954" stroke="#0E696C" stroke-width="0.15479" stroke-miterlimit="10"/>
<path d="M17.3003 178.618C17.3003 180.55 20.8589 186.138 20.8589 186.138C20.8589 186.138 24.4175 180.535 24.4175 178.618C24.3873 177.71 23.9993 176.849 23.3356 176.217C22.6719 175.585 21.7844 175.231 20.8608 175.231C19.9372 175.231 19.0498 175.585 18.3861 176.217C17.7224 176.849 17.3344 177.71 17.3041 178.618H17.3003Z" fill="#0E696C"/>
<path d="M11.4173 189.323C12.4838 190.944 18.5651 193.749 18.5651 193.749C18.5651 193.749 18.4543 187.142 17.3879 185.522C16.8586 184.781 16.0584 184.271 15.155 184.098C14.2517 183.926 13.3155 184.104 12.543 184.596C11.7705 185.088 11.2217 185.855 11.0118 186.737C10.8019 187.618 10.9473 188.545 11.4173 189.323Z" fill="#0E696C"/>
<path d="M11.6776 207.617C13.4321 208.486 20.1212 207.888 20.1212 207.888C20.1212 207.888 16.6352 202.248 14.8807 201.371C14.4622 201.15 14.0026 201.012 13.5293 200.968C13.056 200.924 12.5785 200.974 12.1249 201.114C11.6714 201.254 11.251 201.483 10.8887 201.786C10.5264 202.088 10.2294 202.46 10.0153 202.877C9.80128 203.295 9.67447 203.751 9.64239 204.217C9.61031 204.684 9.67361 205.152 9.82856 205.594C9.98351 206.037 10.227 206.444 10.5446 206.792C10.8621 207.14 11.2474 207.422 11.6776 207.621V207.617Z" fill="#0E696C"/>
<path d="M15.0371 221.414C16.6157 222.565 23.3125 223.084 23.3125 223.084C23.3125 223.084 20.8471 216.939 19.2684 215.789C18.892 215.515 18.4645 215.318 18.0103 215.207C17.5562 215.096 17.0843 215.074 16.6217 215.143C16.159 215.211 15.7146 215.369 15.3138 215.607C14.9131 215.844 14.5638 216.157 14.286 216.527C14.0082 216.898 13.8072 217.318 13.6946 217.765C13.582 218.212 13.5599 218.676 13.6296 219.131C13.6994 219.586 13.8596 220.024 14.1011 220.418C14.3426 220.812 14.6606 221.156 15.0371 221.429V221.414Z" fill="#0E696C"/>
<path d="M26.0379 194.122C24.6275 195.468 18.0645 196.863 18.0645 196.863C18.0645 196.863 19.6737 190.448 21.0803 189.102C21.757 188.453 22.6677 188.096 23.6121 188.108C24.5566 188.121 25.4573 188.502 26.1162 189.167C26.7752 189.833 27.1383 190.729 27.1258 191.658C27.1133 192.587 26.726 193.473 26.0494 194.122H26.0379Z" fill="#0E696C"/>
<path d="M29.761 210.306C28.0065 211.175 21.3174 210.577 21.3174 210.577C21.3174 210.577 24.8034 204.936 26.5578 204.06C27.3967 203.672 28.3564 203.621 29.2329 203.918C30.1093 204.215 30.8333 204.837 31.2507 205.652C31.6681 206.466 31.7459 207.408 31.4677 208.278C31.1895 209.148 30.5771 209.877 29.761 210.31V210.306Z" fill="#0E696C"/>
<path d="M31.1865 226.528C29.6079 227.679 22.9111 228.198 22.9111 228.198C22.9111 228.198 25.3765 222.053 26.9552 220.903C27.7155 220.351 28.6676 220.118 29.602 220.257C30.5363 220.395 31.3765 220.893 31.9376 221.641C32.4987 222.389 32.7348 223.326 32.594 224.245C32.4531 225.165 31.9468 225.991 31.1865 226.543V226.528Z" fill="#0E696C"/>
<path d="M148.447 47.8182C155.413 47.8182 161.061 42.2625 161.061 35.4091C161.061 28.5557 155.413 23 148.447 23C141.48 23 135.833 28.5557 135.833 35.4091C135.833 42.2625 141.48 47.8182 148.447 47.8182Z" fill="#0E696C"/>
<path d="M184.175 177.989H168.96C168.96 177.989 169.923 170.342 170.528 168.694C171.106 167.099 171.629 164.749 176.581 164.749C181.066 164.749 182.359 166.829 182.854 168.694C183.322 170.558 184.175 177.989 184.175 177.989Z" fill="white"/>
<path d="M257.086 207.739H273.264L271.118 199.579H257.086V207.739Z" fill="#0E696C"/>
<path d="M57.7225 231.004C56.2918 226.491 56.8145 221.601 58.7405 217.277C59.2357 216.169 59.7035 215.143 60.0611 214.548C61.2992 212.576 64.6009 209.117 66.4993 207.739C68.1501 206.523 72.0846 205.091 74.0656 204.523C79.5408 202.956 96.6268 201.065 96.6268 201.065L111.869 199.714L123.975 193.066C123.975 193.066 136.852 185.771 141.364 183.771C148.105 180.772 161.201 177.556 170.253 177.556C190.861 177.556 201.839 177.935 212.019 180.231C217.742 181.528 234.278 187.581 234.278 187.581L252.959 194.012C252.959 194.012 265.533 193.066 268.835 195.255C270.045 196.039 271.394 200.335 271.394 200.335L260.773 200.551L262.809 206.766L272.907 207.144L274.585 210.063C276.649 213.683 277.392 217.926 276.594 222.006C275.851 225.789 274.558 230.004 272.412 231.517C269.495 233.571 249.63 234.733 249.63 234.733C249.63 234.733 251.061 214.305 231.086 213.819C221.071 213.575 213.945 220.682 212.762 227.545C212.377 229.761 212.019 236.462 212.019 236.462L111.897 237.948C111.869 237.948 111.897 237.948 111.897 237.948H111.869V236.813C111.622 230.247 109.338 214.575 91.5368 214.575C71.892 214.575 73.0201 237.867 73.0201 237.867C73.0201 237.867 63.3628 237.408 60.4738 235.354C59.1532 234.409 58.3003 232.787 57.7225 231.004Z" fill="#0E696C"/>
<path d="M177.682 197.039L178.645 181.745C178.645 181.745 194.576 181.637 201.234 182.988C203.572 183.474 209.35 185.906 214.083 188.662C219.888 192.04 224.428 196.093 224.428 196.093L177.682 197.039Z" fill="#272425"/>
<path d="M169.62 197.768L171.793 181.664C171.793 181.664 163.622 181.664 155.092 183.717C143.509 186.501 124.8 200.011 124.8 200.011L169.62 197.768Z" fill="#272425"/>
<path d="M169.62 197.768L166.786 230.166" stroke="#0E696C" stroke-width="0.5" stroke-miterlimit="10"/>
<path d="M212.486 229.626L111.208 231.247" stroke="#0E696C" stroke-width="0.5" stroke-miterlimit="10"/>
<path d="M124.799 200.011L119.875 230.437" stroke="#0E696C" stroke-width="0.5" stroke-miterlimit="10"/>
<path d="M224.427 196.12L223.354 214.818" stroke="#0E696C" stroke-width="0.5" stroke-miterlimit="10"/>
<path d="M210.039 206.704H218.541V203.678H210.039V206.704Z" fill="#0E696C"/>
<path d="M155.591 206.704H164.093V203.678H155.591V206.704Z" fill="#0E696C"/>
<path d="M66.4991 207.739H76.2389C77.477 207.739 78.1099 209.171 77.312 210.063C73.0749 214.764 66.9668 217.413 60.5561 217.304L58.7402 217.277C58.7402 217.277 60.7487 211.711 66.4991 207.739Z" fill="white"/>
<path d="M213.916 232.463C213.916 241.596 221.427 249 230.699 249C239.971 249 247.483 241.596 247.483 232.463C247.483 223.33 239.971 215.926 230.699 215.926C221.427 215.926 213.916 223.33 213.916 232.463Z" fill="#272425"/>
<path d="M223.601 232.463C223.601 236.327 226.793 239.462 230.727 239.462C234.662 239.462 237.853 236.327 237.853 232.463C237.853 228.599 234.662 225.465 230.727 225.465C226.765 225.438 223.601 228.572 223.601 232.463Z" fill="#CFD1D2"/>
<path d="M75.5225 232.463C75.5225 241.596 83.0337 249 92.3058 249C101.578 249 109.089 241.596 109.089 232.463C109.089 223.33 101.578 215.926 92.3058 215.926C83.0337 215.926 75.5225 223.33 75.5225 232.463Z" fill="#272425"/>
<path d="M85.1802 232.463C85.1802 236.327 88.3718 239.462 92.3062 239.462C96.2407 239.462 99.4323 236.327 99.4323 232.463C99.4323 228.599 96.2407 225.465 92.3062 225.465C88.3718 225.438 85.1802 228.572 85.1802 232.463Z" fill="#CFD1D2"/>
<path d="M116.014 260.552C116.015 260.494 116.011 260.436 115.996 260.377C115.104 256.9 110.678 254.735 110.678 254.735L108.924 254.87C107.915 257.934 108.045 259.814 108.207 260.651C108.211 260.674 108.219 260.696 108.225 260.719C109.672 260.846 112.65 260.929 116.014 260.552Z" fill="#0E696C"/>
<path d="M108.224 260.715C108.302 260.994 108.512 261.212 108.781 261.268C110.839 261.694 114.11 261.351 115.484 261.174C115.786 261.135 116.008 260.86 116.013 260.548C112.649 260.925 109.671 260.842 108.224 260.715Z" fill="url(#paint0_linear_970_2675)"/>
<path d="M108.218 252.296L108.961 255.812C109.015 256.07 109.217 256.262 109.461 256.285C109.759 256.313 110.184 256.329 110.612 256.267C110.995 256.212 111.262 255.829 111.194 255.418L110.677 252.296H108.218Z" fill="url(#paint1_linear_970_2675)"/>
<path d="M123.611 260.674C121.673 260.621 120.672 260.397 120.153 260.188C120.152 260.378 120.153 260.571 120.159 260.771C120.166 260.984 120.327 261.154 120.525 261.153L131.161 261.086C131.501 261.084 131.699 260.696 131.552 260.39C130.158 260.503 126.606 260.756 123.611 260.674Z" fill="url(#paint2_linear_970_2675)"/>
<path d="M131.551 260.39C131.538 260.364 131.528 260.336 131.509 260.311C130.57 259.02 128.178 256.451 123.449 255.336L121.182 255.266C121.182 255.266 120.172 256.992 120.153 260.188C120.671 260.397 121.673 260.621 123.61 260.674C126.605 260.756 130.157 260.503 131.551 260.39Z" fill="#0E696C"/>
<path d="M120.661 251.992C120.696 252.156 121.169 254.658 121.351 255.628C121.395 255.859 121.577 256.028 121.795 256.04C122.183 256.061 122.809 256.064 123.348 255.92C123.639 255.842 123.835 255.551 123.813 255.227L123.56 251.27L120.661 251.992Z" fill="url(#paint3_linear_970_2675)"/>
<path d="M118.942 205.79C118.942 205.79 122.062 226.868 124.313 251.951C124.355 252.418 123.977 252.825 123.51 252.921C122.822 253.064 121.811 253.233 120.974 253.21C120.528 253.198 120.154 252.872 120.079 252.439C119.312 248.016 113.839 224.281 112.402 219.057C112.402 219.057 110.752 241.247 111.28 252.759C111.293 253.045 111.08 253.293 110.79 253.326C110.351 253.376 109.649 253.414 108.754 253.321C108.415 253.285 108.141 253.033 108.093 252.701C107.546 248.958 104.401 226.679 104.535 210.63C104.543 209.725 105.615 202.289 105.615 202.289L118.942 205.79Z" fill="white"/>
<path d="M145.685 185.641C145.685 185.641 144.811 183.38 143.792 183.588C142.772 183.795 141.656 184.565 141.656 184.565L140.017 186.744C140.017 186.744 144.617 188.526 146.235 187.505C146.235 187.505 150.935 188.304 156.869 187.346C156.01 185.563 155.498 183.777 155.197 182.392C152.191 184.064 148.954 185.314 145.685 185.641Z" fill="url(#paint4_linear_970_2675)"/>
<path d="M170.576 169.243C170.576 169.243 163.849 177.575 155.196 182.391C155.497 183.777 156.009 185.562 156.868 187.345C161.356 186.62 166.551 184.893 170.954 181.052L170.576 169.243Z" fill="#FFF1B1"/>
<path d="M120.151 170.344L120.568 181.374C121.755 181.776 122.884 182.088 123.96 182.321C124.633 180.191 126.114 177.577 127.327 175.634C122.87 174.085 120.151 170.344 120.151 170.344Z" fill="#0E696C"/>
<path d="M142.403 170.151C136.289 176.641 131.341 177.023 127.328 175.629C126.115 177.572 124.633 180.186 123.961 182.315C140.287 185.855 144.132 171.097 144.132 171.097L142.403 170.151Z" fill="url(#paint5_linear_970_2675)"/>
<path d="M105.147 207C104.826 206.888 104.602 206.601 104.567 206.269C104.152 202.311 102.144 177.772 114.826 167.679C114.826 167.679 115.553 165.808 121.531 170.407C127.509 175.006 124.309 179.826 122.877 186.475C121.145 194.521 118.107 201.097 119.451 206.048C119.544 206.39 119.361 206.748 119.023 206.871C114.38 208.554 109.754 208.609 105.147 207Z" fill="#0E696C"/>
<path d="M119.773 160.328C119.77 160.677 114.706 167.749 114.706 167.749C114.706 167.749 115.615 169.51 119.954 170.939L123.7 163.366L119.773 160.328Z" fill="url(#paint6_linear_970_2675)"/>
<path d="M117.781 184.611C117.781 184.611 127.389 192.522 137.764 189.07C138.407 188.856 139.111 188.903 139.712 189.214L142.694 190.763C143.946 191.413 145.497 190.986 146.223 189.792C146.637 189.111 146.99 188.332 147.061 187.586L141.225 185.263L141.655 184.56C141.655 184.56 138.806 184.323 138.06 186.331C138.06 186.331 132.632 188.551 123.479 178.651C123.48 178.651 119.326 182.123 117.781 184.611Z" fill="url(#paint7_linear_970_2675)"/>
<path d="M117.264 184.532C117.232 184.532 117.2 184.524 117.172 184.505C113.126 181.817 111.224 177.48 111.205 177.436C111.169 177.353 111.208 177.259 111.292 177.224C111.376 177.189 111.472 177.227 111.507 177.31C111.525 177.353 113.394 181.605 117.356 184.237C117.431 184.286 117.451 184.387 117.4 184.462C117.368 184.507 117.317 184.532 117.264 184.532Z" fill="#0E696C"/>
<path d="M123.289 178.517C123.235 178.517 123.182 178.491 123.151 178.443C123.139 178.424 121.903 176.533 119.549 172.388C118.825 171.114 117.874 170.307 116.722 169.99C114.814 169.466 112.975 170.472 112.956 170.482C112.877 170.525 112.776 170.499 112.732 170.422C112.687 170.344 112.714 170.245 112.793 170.201C112.872 170.157 114.764 169.116 116.807 169.678C118.049 170.019 119.067 170.877 119.836 172.231C122.185 176.365 123.415 178.25 123.428 178.268C123.477 178.343 123.455 178.443 123.379 178.492C123.351 178.508 123.32 178.517 123.289 178.517Z" fill="#0E696C"/>
<path d="M123.758 156.277C123.758 156.277 125.56 160.346 125.681 162.482C125.802 164.618 126.27 166.004 123.758 166.434C121.246 166.865 119.13 165.634 117.984 163.506C117.984 163.506 116.187 160.227 116.59 158.885C116.993 157.543 123.758 156.277 123.758 156.277Z" fill="url(#paint8_linear_970_2675)"/>
<path d="M118.843 161.978L118.986 161.916C119.168 161.837 119.246 161.624 119.154 161.45C118.8 160.778 118.109 159.235 119.001 158.876C120.151 158.412 124.705 157.499 125.688 155.91C126.632 154.383 125.795 152.412 124.538 151.851C124.454 151.814 124.355 151.843 124.311 151.924L124.206 152.118C124.135 152.252 123.934 152.232 123.892 152.087C123.85 151.947 123.662 151.92 123.584 152.043C123.282 152.519 122.467 153.289 120.286 153.685C117.187 154.247 115.138 155.48 115.087 157.586C115.084 157.719 114.939 157.794 114.823 157.724C114.594 157.587 114.228 157.523 113.739 157.928C112.887 158.631 113.236 160.456 115.102 161.958C115.19 162.029 115.189 162.165 115.093 162.227C114.755 162.444 114.251 162.959 115.558 163.646C116.909 164.356 117.918 164.298 118.307 164.235C118.403 164.219 118.465 164.127 118.444 164.033L118.03 162.182C118.006 162.078 118.087 161.978 118.196 161.978H118.843V161.978Z" fill="url(#paint9_linear_970_2675)"/>
<path d="M118.921 162.367C118.921 162.367 118.234 159.767 117.048 160.496C115.863 161.225 117.664 163.409 118.616 163.506L118.921 162.367Z" fill="url(#paint10_linear_970_2675)"/>
<path d="M139.711 189.216C139.711 189.216 142.153 191.564 142.624 191.222C142.792 191.101 143.215 190.659 143.625 190.167C143.914 189.82 143.945 189.33 143.696 188.953L143.12 188.079C142.571 187.246 141.397 187.072 140.636 187.723C140.252 188.052 139.903 188.528 139.711 189.216Z" fill="url(#paint11_linear_970_2675)"/>
<path d="M178.967 206.169C177.651 200.024 176.335 196.466 171.93 184.819C170.543 181.153 169.284 177.445 169.892 173.58L170.576 169.239C170.576 169.239 179.138 166.391 188.628 169.119C188.628 169.119 201.576 174.65 192.782 201.963C188.817 206.325 184.178 207.567 178.967 206.169Z" fill="#FFF1B1"/>
<path d="M172.034 163.701L174.253 168.945C174.394 169.277 174.697 169.513 175.057 169.573C176.337 169.789 179.433 170.126 181.466 168.812C181.708 168.655 181.77 168.331 181.604 168.097L177.502 162.308L172.034 163.701Z" fill="url(#paint12_linear_970_2675)"/>
<path d="M174.33 155.676C174.237 155.762 170.396 163.18 170.396 163.18L174.75 165.247L179.453 158.748C179.453 158.748 175.891 154.231 174.33 155.676Z" fill="url(#paint13_linear_970_2675)"/>
<path d="M177.474 159.529L175.302 163.089C175.269 163.142 175.23 163.192 175.183 163.234C174.924 163.471 174.04 164.159 173.356 163.222C172.774 162.424 172.227 161.698 171.641 161.398C171.299 161.223 170.877 161.363 170.703 161.701C170.346 162.399 169.653 163.82 169.217 165.168C169.108 165.505 169.285 165.868 169.62 166.001C170.502 166.352 172.244 166.987 173.79 167.197C174.044 167.231 174.296 167.126 174.447 166.922C175.113 166.026 176.987 163.522 177.627 162.895C178.222 162.313 179.319 162.532 179.813 162.672C180.001 162.725 180.201 162.699 180.368 162.6C180.869 162.303 181.745 161.563 180.944 160.31C180.745 159.999 180.846 159.584 181.159 159.382C181.72 159.02 182.327 158.34 181.748 157.239C181.162 156.124 180.115 156.024 179.403 156.11C179.087 156.148 178.767 155.985 178.646 155.696C178.592 155.567 178.486 155.458 178.288 155.418C177.914 155.344 177.669 155.008 177.742 154.64C177.868 154.009 177.774 153.19 176.749 152.636C174.87 151.62 173.224 153.275 172.806 154.672C172.387 156.069 174.488 157.056 175.81 157.221C176.78 157.342 177.312 158.383 177.527 158.928C177.603 159.127 177.585 159.347 177.474 159.529Z" fill="url(#paint14_linear_970_2675)"/>
<path d="M176.811 164.207C176.811 164.207 177.646 161.803 178.716 161.891C179.785 161.979 180.627 163.026 179.301 164.204C177.652 165.669 176.811 164.207 176.811 164.207Z" fill="url(#paint15_linear_970_2675)"/>
<path d="M178.125 260.334C180.193 260.51 183.782 260.795 186.611 260.918C188.312 260.991 189.291 260.828 189.855 260.606C189.853 260.669 189.852 260.727 189.85 260.783C189.836 261.075 189.594 261.309 189.294 261.326C183.947 261.619 179.696 261.428 178.182 261.337C177.869 261.318 177.683 260.984 177.843 260.721C177.923 260.589 178.02 260.461 178.125 260.334Z" fill="#0E696C"/>
<path d="M186.61 260.919C183.781 260.797 180.192 260.511 178.124 260.336C180.157 257.883 186.61 256.23 186.61 256.23H188.433C189.686 258.007 189.868 259.698 189.854 260.607C189.29 260.829 188.311 260.993 186.61 260.919Z" fill="#FFF1B1"/>
<path d="M188.739 253.301L188.568 256.619C188.55 256.978 188.276 257.28 187.91 257.332C187.546 257.383 187.058 257.39 186.541 257.22C186.223 257.116 185.986 256.853 185.928 256.531L185.338 253.301H188.739Z" fill="url(#paint16_linear_970_2675)"/>
<path d="M212.411 260.878C213.308 260.755 213.713 260.297 213.884 259.808C213.885 259.812 213.886 259.816 213.887 259.821C214.019 260.338 213.713 260.873 213.102 261.128C212.362 261.435 211.554 261.488 210.927 261.462C210.254 261.435 209.637 261.161 209.297 260.723L209.292 260.716C209.967 261.044 210.915 261.083 212.411 260.878Z" fill="#0E696C"/>
<path d="M208.183 253.265H209.686C211.975 253.22 213.413 257.967 213.884 259.806C213.713 260.295 213.308 260.754 212.411 260.876C210.915 261.081 209.967 261.043 209.291 260.714C208.054 259.113 207.441 256.77 207.146 255.402C206.812 253.847 208.183 253.265 208.183 253.265Z" fill="#FFF1B1"/>
<path d="M209.493 250.186L210.328 253.45C210.43 253.85 210.235 254.264 209.859 254.454C209.392 254.689 208.735 254.937 208.131 254.865C207.847 254.832 207.611 254.635 207.517 254.372L206.292 250.938L209.493 250.186Z" fill="url(#paint17_linear_970_2675)"/>
<path d="M210.489 251.136C209.451 252.042 206.073 252.162 206.073 252.162C193.907 223.452 188.835 215.548 188.835 215.548C190.592 226.385 189.214 254.2 189.214 254.2C187.206 255.071 184.618 254.2 184.618 254.2C184.455 236.46 181.915 217.397 178.639 205.199C186.862 205.018 191.33 203.255 192.758 202.145C199.611 213.01 210.489 251.136 210.489 251.136Z" fill="#0E696C"/>
<path d="M141.884 168.888C141.884 168.888 141.35 167.937 141.407 167.173C141.464 166.408 140.98 165.284 141.496 165.367C142.012 165.451 142.118 165.383 142.258 166.301C142.398 167.218 143.657 170.604 141.884 168.888Z" fill="url(#paint18_linear_970_2675)"/>
<path d="M145.783 163.208C145.777 163.065 145.706 162.931 145.59 162.843C145.475 162.756 145.325 162.724 145.182 162.756L141.624 163.552C141.486 163.582 141.393 163.71 141.409 163.849L142.443 172.942C142.448 172.981 142.468 173.016 142.5 173.041C142.531 173.066 142.571 173.077 142.611 173.072L145.717 172.702C145.971 172.672 146.159 172.454 146.149 172.202L145.783 163.208Z" fill="url(#paint19_linear_970_2675)"/>
<path d="M144.782 163.731C144.778 163.65 144.736 163.574 144.67 163.526C144.603 163.478 144.518 163.461 144.437 163.481L142.096 164.056C141.961 164.089 141.871 164.216 141.887 164.352L142.775 172.096C142.779 172.136 142.801 172.173 142.834 172.197C142.867 172.222 142.909 172.232 142.95 172.224L145.109 171.846C145.184 171.833 145.237 171.767 145.233 171.693L144.782 163.731Z" fill="url(#paint20_linear_970_2675)"/>
<path d="M143.437 163.52C143.443 163.547 143.405 163.578 143.352 163.589L142.569 163.748C142.516 163.759 142.468 163.746 142.463 163.718L142.457 163.691C142.451 163.664 142.489 163.633 142.542 163.622L143.325 163.463C143.378 163.452 143.426 163.466 143.432 163.493L143.437 163.52Z" fill="url(#paint21_linear_970_2675)"/>
<path d="M147.019 165.52C146.444 165.312 145.319 163.397 145.104 164.027C144.889 164.657 145.195 165.52 145.104 165.788C145.013 166.055 144.391 167.543 144.671 168.228C144.873 168.721 145.206 170.241 145.377 171.049C145.433 171.318 145.673 171.509 145.952 171.51C146.23 171.51 146.471 171.318 146.528 171.05C146.549 170.942 147.594 165.728 147.019 165.52Z" fill="url(#paint22_linear_970_2675)"/>
<path d="M184.664 197.797C184.388 197.854 184.167 198.022 184.06 198.256L182.583 201.497C182.388 201.927 182.623 202.457 183.115 202.695L190.603 206.317C190.861 206.442 191.153 206.467 191.407 206.386C191.661 206.305 191.854 206.126 191.937 205.893L192.807 203.457C192.943 203.079 192.764 202.637 192.375 202.387L185.493 197.96C185.244 197.799 184.94 197.74 184.664 197.797Z" fill="url(#paint23_linear_970_2675)"/>
<path d="M197.388 191.186C198.988 179.295 189.668 170.151 189.668 170.151L184.123 176.507C188.333 181.667 190.334 186.395 191.249 190.109C192.461 189.761 195.38 189.213 197.388 191.186Z" fill="#FFF1B1"/>
<path d="M191.247 190.448C191.093 190.448 190.952 190.344 190.914 190.19C189.787 185.612 187.412 181.08 183.855 176.721C183.736 176.576 183.759 176.363 183.908 176.246C184.055 176.13 184.272 176.153 184.391 176.298C188.012 180.736 190.431 185.357 191.582 190.031C191.627 190.213 191.514 190.395 191.329 190.439C191.302 190.445 191.274 190.448 191.247 190.448Z" fill="url(#paint24_linear_970_2675)"/>
<path d="M191.329 190.443C192.178 193.894 192.008 196.583 191.879 197.812C191.831 198.275 191.452 198.637 190.979 198.67C190.442 198.707 189.711 198.755 189.057 198.792C188.34 198.833 187.543 198.387 187.01 198.014C186.737 197.824 186.386 198.12 186.538 198.413C186.936 199.178 187.945 199.859 188.641 200.259C188.894 200.405 188.846 200.777 188.564 200.856L186.655 201.387C186.438 201.447 186.276 201.623 186.236 201.841C186.195 202.058 186.284 202.278 186.465 202.41C190.86 205.613 193.706 201.147 193.706 201.147C195.864 197.868 196.98 194.22 197.388 191.192C195.349 188.776 192.542 190.095 191.329 190.443Z" fill="url(#paint25_linear_970_2675)"/>
<defs>
<linearGradient id="paint0_linear_970_2675" x1="127.919" y1="248.592" x2="99.4844" y2="271.299" gradientUnits="userSpaceOnUse">
<stop stop-color="#53D8FF"/>
<stop offset="1" stop-color="#3840F7"/>
</linearGradient>
<linearGradient id="paint1_linear_970_2675" x1="110.298" y1="248.911" x2="108.835" y2="261.896" gradientUnits="userSpaceOnUse">
<stop stop-color="#F9B776"/>
<stop offset="1" stop-color="#F47960"/>
</linearGradient>
<linearGradient id="paint2_linear_970_2675" x1="133.037" y1="254.994" x2="104.603" y2="277.702" gradientUnits="userSpaceOnUse">
<stop stop-color="#53D8FF"/>
<stop offset="1" stop-color="#3840F7"/>
</linearGradient>
<linearGradient id="paint3_linear_970_2675" x1="122.412" y1="250.289" x2="121.755" y2="263.337" gradientUnits="userSpaceOnUse">
<stop stop-color="#F9B776"/>
<stop offset="1" stop-color="#F47960"/>
</linearGradient>
<linearGradient id="paint4_linear_970_2675" x1="140.017" y1="185.106" x2="156.868" y2="185.106" gradientUnits="userSpaceOnUse">
<stop stop-color="#F9B776"/>
<stop offset="1" stop-color="#F47960"/>
</linearGradient>
<linearGradient id="paint5_linear_970_2675" x1="150.474" y1="169.224" x2="124.216" y2="182.509" gradientUnits="userSpaceOnUse">
<stop stop-color="#F9B776"/>
<stop offset="1" stop-color="#F47960"/>
</linearGradient>
<linearGradient id="paint6_linear_970_2675" x1="116.332" y1="173.262" x2="119.742" y2="163.793" gradientUnits="userSpaceOnUse">
<stop stop-color="#F9B776"/>
<stop offset="1" stop-color="#F47960"/>
</linearGradient>
<linearGradient id="paint7_linear_970_2675" x1="133.74" y1="184.233" x2="108.281" y2="229.225" gradientUnits="userSpaceOnUse">
<stop stop-color="#F9B776"/>
<stop offset="1" stop-color="#F47960"/>
</linearGradient>
<linearGradient id="paint8_linear_970_2675" x1="124.965" y1="159.115" x2="104.31" y2="175.847" gradientUnits="userSpaceOnUse">
<stop stop-color="#F9B776"/>
<stop offset="1" stop-color="#F47960"/>
</linearGradient>
<linearGradient id="paint9_linear_970_2675" x1="116.885" y1="153.724" x2="126.277" y2="166.022" gradientUnits="userSpaceOnUse">
<stop stop-color="#2B3582"/>
<stop offset="1" stop-color="#150E42"/>
</linearGradient>
<linearGradient id="paint10_linear_970_2675" x1="122.859" y1="158.216" x2="112.688" y2="166.132" gradientUnits="userSpaceOnUse">
<stop stop-color="#F9B776"/>
<stop offset="1" stop-color="#F47960"/>
</linearGradient>
<linearGradient id="paint11_linear_970_2675" x1="139.711" y1="189.292" x2="143.864" y2="189.292" gradientUnits="userSpaceOnUse">
<stop stop-color="#F9B776"/>
<stop offset="1" stop-color="#F47960"/>
</linearGradient>
<linearGradient id="paint12_linear_970_2675" x1="176.028" y1="171.534" x2="179.478" y2="148.21" gradientUnits="userSpaceOnUse">
<stop stop-color="#F9B776"/>
<stop offset="1" stop-color="#F47960"/>
</linearGradient>
<linearGradient id="paint13_linear_970_2675" x1="175.596" y1="157.078" x2="172.985" y2="172.706" gradientUnits="userSpaceOnUse">
<stop stop-color="#F9B776"/>
<stop offset="1" stop-color="#F47960"/>
</linearGradient>
<linearGradient id="paint14_linear_970_2675" x1="178.433" y1="164.469" x2="170.623" y2="156.032" gradientUnits="userSpaceOnUse">
<stop stop-color="#2B3582"/>
<stop offset="1" stop-color="#150E42"/>
</linearGradient>
<linearGradient id="paint15_linear_970_2675" x1="177.936" y1="174.124" x2="178.4" y2="163.16" gradientUnits="userSpaceOnUse">
<stop stop-color="#F9B776"/>
<stop offset="1" stop-color="#F47960"/>
</linearGradient>
<linearGradient id="paint16_linear_970_2675" x1="188.739" y1="255.332" x2="185.339" y2="255.332" gradientUnits="userSpaceOnUse">
<stop stop-color="#F9B776"/>
<stop offset="1" stop-color="#F47960"/>
</linearGradient>
<linearGradient id="paint17_linear_970_2675" x1="210.355" y1="252.532" x2="206.292" y2="252.532" gradientUnits="userSpaceOnUse">
<stop stop-color="#F9B776"/>
<stop offset="1" stop-color="#F47960"/>
</linearGradient>
<linearGradient id="paint18_linear_970_2675" x1="143.067" y1="165.922" x2="139.346" y2="171.261" gradientUnits="userSpaceOnUse">
<stop stop-color="#F9B776"/>
<stop offset="1" stop-color="#F47960"/>
</linearGradient>
<linearGradient id="paint19_linear_970_2675" x1="147.43" y1="162.989" x2="134.397" y2="181.691" gradientUnits="userSpaceOnUse">
<stop stop-color="#2B3582"/>
<stop offset="1" stop-color="#150E42"/>
</linearGradient>
<linearGradient id="paint20_linear_970_2675" x1="146.512" y1="163.896" x2="136.013" y2="178.961" gradientUnits="userSpaceOnUse">
<stop stop-color="#0E696C"/>
<stop offset="1" stop-color="#0E696C"/>
</linearGradient>
<linearGradient id="paint21_linear_970_2675" x1="143.146" y1="163.387" x2="143.007" y2="164.312" gradientUnits="userSpaceOnUse">
<stop stop-color="#8D55D1"/>
<stop offset="0.9964" stop-color="#1C2873"/>
</linearGradient>
<linearGradient id="paint22_linear_970_2675" x1="147.732" y1="164.91" x2="140.03" y2="175.962" gradientUnits="userSpaceOnUse">
<stop stop-color="#F9B776"/>
<stop offset="1" stop-color="#F47960"/>
</linearGradient>
<linearGradient id="paint23_linear_970_2675" x1="187.689" y1="196.983" x2="187.67" y2="216.441" gradientUnits="userSpaceOnUse">
<stop stop-color="#2B3582"/>
<stop offset="1" stop-color="#150E42"/>
</linearGradient>
<linearGradient id="paint24_linear_970_2675" x1="202.48" y1="135.514" x2="178.726" y2="214.892" gradientUnits="userSpaceOnUse">
<stop stop-color="#FDF53F"/>
<stop offset="1" stop-color="#D93C65"/>
</linearGradient>
<linearGradient id="paint25_linear_970_2675" x1="194.322" y1="191.801" x2="185.478" y2="209.1" gradientUnits="userSpaceOnUse">
<stop stop-color="#F9B776"/>
<stop offset="1" stop-color="#F47960"/>
</linearGradient>
</defs>
</svg>
